# xmcd
#
# Track frame offsets: 
#        150
#        18995
#        37865
#        52670
#        68142
#        87465
#        105022
#        121217
#        129120
#        145937
#        160262
#
# Disc length: 2332 seconds
#
# Revision: 4
# Processed by: cddbd v1.5.1PL0 Copyright (c) Steve Scherf et al.
# Submitted via: ExactAudioCopy v0.95b2
#
DISCID=7a091a0b
DTITLE=Leevi and the Leavings - Turkmenialainen tyttöystävä
DYEAR=1993
DGENRE=Rock
TTITLE0=Turkmenialainen tyttöystävä
TTITLE1=Toteemipaalu
TTITLE2=Mieletön Melinda
TTITLE3=Yön tuoksut
TTITLE4=Kuin jäisellä peltikatolla
TTITLE5=Pohjoisen taivaan alla
TTITLE6=Lumettoman talven tarinoita
TTITLE7=Muurahaisen munat
TTITLE8=Miesten kesken
TTITLE9=Kuudentoista vuoden yhtäjaksoinen sade
TTITLE10=Kyyhkynen ja kyykäärme
EXTD=
EXTT0=
EXTT1=
EXTT2=
EXTT3=
EXTT4=
EXTT5=
EXTT6=
EXTT7=
EXTT8=
EXTT9=
EXTT10=
PLAYORDER=
